<?xml version="1.0" encoding="UTF-8"?>
<svg width="368px" height="85px" viewBox="0 0 368 85" version="1.1" xmlns="http://www.w3.org/2000/svg" xmlns:xlink="http://www.w3.org/1999/xlink">
    <!-- Generator: Sketch 42 (36781) - http://www.bohemiancoding.com/sketch -->
    <title>Group 6</title>
    <desc>Created with Sketch.</desc>
    <defs></defs>
    <g id="Page-1" stroke="none" stroke-width="1" fill="none" fill-rule="evenodd" opacity="0.5">
        <g id="Starter-Plan-Customer-Copy-3" transform="translate(-37.000000, -791.000000)" fill-rule="nonzero" fill="#3D4351">
            <g id="Group-6" transform="translate(37.000000, 791.000000)">
                <g id="title-spark-left" transform="translate(0.000000, 13.000000)">
                    <g id="Layer_1">
                        <g id="Group-4" transform="translate(17.000000, 0.000000)">
                            <path d="M15.2,10.5 L1.9,10.5 C1.1,10.5 0.4,9.8 0.4,9 C0.4,8.2 1.1,7.5 1.9,7.5 L15.2,7.5 C16,7.5 16.7,8.2 16.7,9 C16.7,9.8 16.1,10.5 15.2,10.5 Z" id="Shape"></path>
                            <path d="M8.5,16.8 L8.5,16.8 C7.7,16.8 7,16.1 7,15.3 L7.1,2 C7.1,1.2 7.8,0.5 8.6,0.5 L8.6,0.5 C9.4,0.5 10.1,1.2 10.1,2 L10.1,15.3 C10,16.2 9.4,16.8 8.5,16.8 Z" id="Shape"></path>
                        </g>
                        <path d="M6,71.5 C3,71.5 0.5,69 0.5,66 C0.5,63 3,60.5 6,60.5 C9,60.5 11.5,63 11.5,66 C11.5,69 9,71.5 6,71.5 Z M6,63.5 C4.6,63.5 3.5,64.6 3.5,66 C3.5,67.4 4.6,68.5 6,68.5 C7.4,68.5 8.5,67.4 8.5,66 C8.5,64.6 7.4,63.5 6,63.5 Z" id="Shape"></path>
                    </g>
                </g>
                <path d="M336,11.5 C333,11.5 330.5,9 330.5,6 C330.5,3 333,0.5 336,0.5 C339,0.5 341.5,3 341.5,6 C341.5,9 339,11.5 336,11.5 Z M336,3.5 C334.6,3.5 333.5,4.6 333.5,6 C333.5,7.4 334.6,8.5 336,8.5 C337.4,8.5 338.5,7.4 338.5,6 C338.5,4.6 337.4,3.5 336,3.5 Z" id="Shape"></path>
                <path d="M355,63.1 L357.7,48.9 L367.6,58.8 L355,63.1 Z M359.6,55.1 L359,58.6 L362.1,57.5 L359.6,55.1 Z" id="Shape"></path>
            </g>
        </g>
    </g>
</svg>